<?xml version="1.0" standalone="no"?>
<!DOCTYPE svg PUBLIC "-//W3C//DTD SVG 20010904//EN"
 "http://www.w3.org/TR/2001/REC-SVG-20010904/DTD/svg10.dtd">
<svg version="1.0" xmlns="http://www.w3.org/2000/svg"
 width="512.000000pt" height="512.000000pt" viewBox="0 0 512.000000 512.000000"
 preserveAspectRatio="xMidYMid meet">
<metadata>
Created by potrace 1.14, written by Peter Selinger 2001-2017
</metadata>
<g transform="translate(0.000000,512.000000) scale(0.100000,-0.100000)"
fill="#000000" stroke="none">
<path d="M1685 5096 c-38 -13 -89 -34 -113 -46 -55 -31 -133 -106 -176 -172
-43 -65 -84 -186 -87 -255 -1 -29 -5 -56 -8 -60 -3 -5 -44 -33 -91 -64 -385
-253 -717 -647 -897 -1064 -63 -145 -134 -366 -149 -460 -3 -22 -8 -43 -10
-46 -3 -6 -19 -99 -30 -184 -13 -103 -19 -285 -12 -420 25 -513 207 -993 536
-1410 131 -166 391 -401 577 -521 119 -77 294 -168 413 -215 93 -37 306 -103
382 -118 30 -6 66 -14 80 -17 118 -26 300 -41 489 -39 277 3 469 33 716 111
173 56 343 131 500 223 61 36 216 140 225 151 3 3 34 28 70 55 59 45 267 246
332 322 53 63 165 219 220 309 160 259 273 560 322 854 30 182 34 246 31 460
-3 221 -15 329 -57 510 -12 52 -22 97 -23 100 -5 28 -56 176 -87 255 -263 664
-808 1183 -1488 1417 -47 16 -128 40 -181 54 -99 25 -103 26 -179 39 -50 9
-50 9 -140 19 -36 5 -78 10 -95 12 -48 6 -323 6 -402 -1 l-71 -7 -69 69 c-109
110 -223 159 -378 161 -60 1 -97 -4 -150 -22z"/>
</g>
</svg>
